<?xml version="1.0" standalone="no"?>
<!DOCTYPE svg PUBLIC "-//W3C//DTD SVG 20010904//EN"
 "http://www.w3.org/TR/2001/REC-SVG-20010904/DTD/svg10.dtd">
<svg version="1.0" xmlns="http://www.w3.org/2000/svg"
 width="1024.000000pt" height="1024.000000pt" viewBox="0 0 1024.000000 1024.000000"
 preserveAspectRatio="xMidYMid meet">

<g transform="translate(0.000000,1024.000000) scale(0.100000,-0.100000)"
fill="#000000" stroke="none">
<path d="M0 5120 l0 -5120 5120 0 5120 0 0 5120 0 5120 -5120 0 -5120 0 0
-5120z m5500 3985 c597 -81 1141 -347 1556 -760 148 -148 223 -237 327 -392
283 -419 424 -847 457 -1384 13 -212 13 -750 0 -953 -36 -562 -207 -1038 -524
-1461 -86 -114 -319 -365 -360 -387 -21 -12 38 -51 -631 417 -253 177 -476
330 -495 340 -53 28 -116 24 -180 -11 -58 -31 -311 -274 -368 -353 -38 -53
-41 -96 -11 -158 21 -44 180 -181 682 -591 197 -161 198 -162 170 -173 -355
-140 -789 -206 -1173 -180 -507 35 -941 180 -1340 446 -169 113 -273 197 -416
340 -421 418 -678 934 -772 1548 -15 96 -17 193 -17 687 0 598 3 647 46 880
132 703 539 1315 1140 1713 409 271 805 404 1339 451 93 8 459 -4 570 -19z
m342 -6926 c77 -16 163 -65 214 -122 24 -27 44 -52 44 -56 0 -3 -34 -27 -75
-53 l-75 -48 -48 49 c-88 92 -209 95 -306 10 -63 -55 -89 -122 -90 -230 0 -77
3 -92 32 -151 87 -178 315 -187 403 -16 10 21 19 40 19 43 0 3 -43 5 -95 5
l-95 0 0 75 0 75 186 0 186 0 -4 -98 c-3 -83 -8 -107 -33 -157 -78 -161 -258
-256 -429 -227 -217 36 -366 220 -366 452 0 129 40 230 126 320 109 115 254
161 406 129z m-2617 -37 c103 -47 155 -124 163 -237 8 -133 -39 -225 -148
-284 -62 -34 -69 -35 -187 -39 l-123 -4 0 -144 0 -144 -95 0 -95 0 0 441 0
440 218 -3 c202 -3 221 -5 267 -26z m585 -327 l0 -355 175 0 175 0 0 -85 0
-85 -270 0 -270 0 0 440 0 440 95 0 95 0 0 -355z m740 61 c0 -192 4 -305 11
-327 28 -82 108 -122 207 -101 31 6 66 22 80 34 49 46 52 65 52 388 l0 300 96
0 95 0 -3 -332 -3 -333 -27 -50 c-51 -97 -141 -156 -266 -175 -128 -20 -267
17 -341 91 -19 19 -46 59 -60 89 l-26 55 -3 328 -3 327 95 0 96 0 0 -294z
m2000 -146 l0 -440 -90 0 -90 0 0 440 0 440 90 0 90 0 0 -440z m526 323 c73
-111 258 -404 282 -448 9 -15 11 50 12 273 l0 292 93 0 92 0 -2 -437 -3 -438
-90 -3 -90 -3 -135 205 c-74 112 -157 241 -185 287 l-50 82 0 -286 0 -287 -95
0 -95 0 0 440 0 440 94 0 94 0 78 -117z"/>
<path d="M5502 7659 c-386 -37 -723 -277 -886 -630 -152 -330 -176 -807 -60
-1159 58 -173 159 -335 287 -457 166 -159 366 -257 611 -299 134 -24 368 -15
497 19 106 28 214 71 279 112 l44 28 30 -39 c29 -37 223 -244 238 -254 9 -6
290 260 286 270 -2 5 -64 73 -139 152 l-136 144 39 54 c183 253 255 650 191
1065 -20 134 -64 268 -129 395 -179 350 -486 558 -884 600 -107 11 -149 11
-268 -1z m328 -478 c320 -100 502 -464 460 -918 -10 -115 -39 -254 -64 -315
l-13 -30 -143 156 c-78 86 -145 156 -149 156 -3 0 -71 -63 -151 -139 l-145
-139 158 -160 159 -159 -34 -21 c-69 -42 -136 -57 -263 -57 -140 0 -213 20
-316 86 -190 123 -302 334 -331 620 -20 211 15 425 99 598 37 79 59 108 127
176 90 89 171 136 279 161 84 19 241 12 327 -15z"/>
<path d="M3640 6385 l0 -1225 265 0 265 0 0 1225 0 1225 -265 0 -265 0 0
-1225z"/>
<path d="M2930 1874 l0 -136 101 4 101 3 34 37 c29 32 34 45 34 87 0 111 -38
141 -177 141 l-93 0 0 -136z"/>
</g>
</svg>
